<svg width="16" height="16" viewBox="0 0 16 16" fill="none" xmlns="http://www.w3.org/2000/svg">
<path d="M9.923 5.30199C9.986 5.36499 10.045 5.43099 10.101 5.49999H14C14.1989 5.49999 14.3897 5.57901 14.5303 5.71966C14.671 5.86031 14.75 6.05108 14.75 6.24999C14.75 6.4489 14.671 6.63967 14.5303 6.78032C14.3897 6.92097 14.1989 6.99999 14 6.99999H10.7L11.278 12.163L11.64 15.16C11.6639 15.3576 11.6083 15.5566 11.4854 15.7131C11.3626 15.8697 11.1826 15.9711 10.985 15.995C10.7874 16.0189 10.5884 15.9633 10.4318 15.8404C10.2753 15.7176 10.1739 15.5376 10.15 15.34L9.868 13H6.132L5.85 15.34C5.82613 15.5376 5.72475 15.7176 5.56815 15.8404C5.41156 15.9633 5.21259 16.0189 5.015 15.995C4.81741 15.9711 4.6374 15.8697 4.51457 15.7131C4.39173 15.5566 4.33613 15.3576 4.36 15.16L4.722 12.163L5.3 6.99999H2C1.80109 6.99999 1.61032 6.92097 1.46967 6.78032C1.32902 6.63967 1.25 6.4489 1.25 6.24999C1.25 6.05108 1.32902 5.86031 1.46967 5.71966C1.61032 5.57901 1.80109 5.49999 2 5.49999H5.9C5.95518 5.43097 6.01393 5.36488 6.076 5.30199C5.60313 4.9069 5.26339 4.37579 5.10296 3.78084C4.94253 3.18589 4.9692 2.55597 5.17934 1.97671C5.38948 1.39745 5.7729 0.896945 6.27747 0.54324C6.78205 0.189536 7.3833 -0.000213623 7.9995 -0.000213623C8.6157 -0.000213623 9.21695 0.189536 9.72153 0.54324C10.2261 0.896945 10.6095 1.39745 10.8197 1.97671C11.0298 2.55597 11.0565 3.18589 10.896 3.78084C10.7356 4.37579 10.3959 4.9069 9.923 5.30199ZM9.2 7.07299C9.168 6.77733 9.0269 6.50392 8.80559 6.30527C8.58429 6.10662 8.29739 5.99674 8 5.99674C7.70261 5.99674 7.41571 6.10662 7.19441 6.30527C6.9731 6.50392 6.83299 6.77733 6.801 7.07299L6.305 11.5H9.695L9.2 7.07299ZM9.5 2.99999C9.49987 2.60203 9.34165 2.22043 9.06016 1.93912C8.77867 1.65782 8.39696 1.49986 7.999 1.49999C7.60104 1.50012 7.21944 1.65834 6.93813 1.93983C6.65683 2.22132 6.49887 2.60303 6.499 3.00099C6.49913 3.39895 6.65735 3.78055 6.93884 4.06186C7.07822 4.20115 7.24367 4.31162 7.42575 4.38696C7.60782 4.46231 7.80295 4.50106 8 4.50099C8.19705 4.50093 8.39215 4.46205 8.57418 4.38658C8.7562 4.31111 8.92158 4.20053 9.06087 4.06115C9.20016 3.92177 9.31063 3.75632 9.38597 3.57425C9.46132 3.39217 9.50007 3.19704 9.5 2.99999Z" fill="#57606A"/>
</svg>
