<svg width="28" height="22" viewBox="0 0 28 22" fill="none" xmlns="http://www.w3.org/2000/svg">
<path d="M27.4868 11.5039L24.0142 15.0039C23.8228 15.168 23.604 15.25 23.3853 15.25C23.1392 15.25 22.9204 15.168 22.7564 15.0039L19.2837 11.5039C19.0103 11.2578 18.9282 10.875 19.0649 10.5469C19.2017 10.2188 19.5298 10 19.8853 10H26.8579C27.2134 10 27.5142 10.2188 27.6509 10.5469C27.7876 10.875 27.7329 11.2578 27.4868 11.5039Z" fill="white"/>
<path d="M8.0625 5.5C8.26141 5.5 8.45218 5.57902 8.59283 5.71967C8.73348 5.86032 8.8125 6.05109 8.8125 6.25V10.5H13.0625C13.2614 10.5 13.4522 10.579 13.5928 10.7197C13.7335 10.8603 13.8125 11.0511 13.8125 11.25C13.8125 11.4489 13.7335 11.6397 13.5928 11.7803C13.4522 11.921 13.2614 12 13.0625 12H8.8125V16.25C8.8125 16.4489 8.73348 16.6397 8.59283 16.7803C8.45218 16.921 8.26141 17 8.0625 17C7.86359 17 7.67282 16.921 7.53217 16.7803C7.39152 16.6397 7.3125 16.4489 7.3125 16.25V12H3.0625C2.86359 12 2.67282 11.921 2.53217 11.7803C2.39152 11.6397 2.3125 11.4489 2.3125 11.25C2.3125 11.0511 2.39152 10.8603 2.53217 10.7197C2.67282 10.579 2.86359 10.5 3.0625 10.5H7.3125V6.25C7.3125 6.05109 7.39152 5.86032 7.53217 5.71967C7.67282 5.57902 7.86359 5.5 8.0625 5.5Z" fill="white"/>
</svg>
