<svg width="16" height="16" viewBox="0 0 16 16" fill="none" xmlns="http://www.w3.org/2000/svg">
<path d="M11.134 1.535C11.834 1.026 12.55 0.592997 13.21 0.379997C13.859 0.169997 14.673 0.112997 15.279 0.719997C15.882 1.321 15.847 2.131 15.647 2.79C15.445 3.458 15.023 4.18 14.522 4.886C13.511 6.31 12.026 7.873 10.747 9.135C9.649 10.219 8.615 10.974 7.707 11.435C7.79622 12.0164 7.74719 12.6106 7.5639 13.1696C7.3806 13.7285 7.0682 14.2363 6.652 14.652C6.221 15.083 5.587 15.343 4.995 15.513C4.381 15.69 3.701 15.8 3.081 15.87C2.32257 15.9545 1.56012 15.9979 0.797001 16H0.743001C0.546681 15.9982 0.357903 15.9194 0.218985 15.7807C0.0800673 15.642 0.00108626 15.4543 -0.000999451 15.258L0.742001 15.25L5.49364e-07 15.257V15.203C0.00229155 14.4399 0.0456877 13.6774 0.130001 12.919C0.197001 12.272 0.317001 11.632 0.488001 11.005C0.658001 10.414 0.918001 9.779 1.348 9.348C1.7649 8.93063 2.27449 8.61762 2.83525 8.43446C3.39602 8.25131 3.99211 8.20318 4.575 8.294C5.041 7.401 5.8 6.387 6.889 5.312C8.16 4.057 9.722 2.562 11.134 1.535ZM1.62 13.089C1.569 13.553 1.534 14.018 1.516 14.484C1.982 14.466 2.448 14.431 2.912 14.38C3.47542 14.3221 4.03323 14.2188 4.58 14.071C5.106 13.92 5.436 13.746 5.591 13.591C6.01296 13.169 6.25001 12.5967 6.25001 12C6.25001 11.4033 6.01296 10.831 5.591 10.409C5.38207 10.2001 5.13403 10.0343 4.86104 9.92126C4.58806 9.80818 4.29548 9.74998 4 9.74998C3.40326 9.74998 2.83096 9.98704 2.409 10.409C2.254 10.564 2.08 10.894 1.929 11.419C1.78114 11.9664 1.6778 12.5249 1.62 13.089ZM12.016 2.749C10.792 3.639 9.411 4.938 8.194 6.133L9.912 7.851C11.122 6.646 12.422 5.254 13.299 4.018C13.769 3.356 14.079 2.791 14.211 2.356C14.345 1.912 14.243 1.805 14.22 1.781H14.219V1.78C14.205 1.766 14.106 1.667 13.671 1.807C13.239 1.947 12.676 2.269 12.016 2.749ZM7.184 10.015L7.183 10.016C7.76346 9.69129 8.30958 9.30867 8.813 8.874L7.155 7.216C6.71413 7.71061 6.3251 8.24908 5.994 8.823C6.476 9.125 6.883 9.533 7.184 10.015Z" fill="#57606A"/>
</svg>
