<svg width="15" height="17" viewBox="0 0 15 17" fill="none" xmlns="http://www.w3.org/2000/svg">
<path d="M7.31222 16.5C7.79947 16.5002 8.27003 16.3225 8.63552 16.0002C9.00102 15.678 9.23631 15.2334 9.29722 14.75C9.31422 14.613 9.20022 14.5 9.06222 14.5H5.56222C5.42422 14.5 5.31022 14.613 5.32722 14.75C5.38812 15.2334 5.62342 15.678 5.98891 16.0002C6.35441 16.3225 6.82496 16.5002 7.31222 16.5ZM2.31222 5.5C2.31222 4.17392 2.839 2.90215 3.77668 1.96447C4.71437 1.02678 5.98613 0.5 7.31222 0.5C8.6383 0.5 9.91007 1.02678 10.8478 1.96447C11.7854 2.90215 12.3122 4.17392 12.3122 5.5V8.447C12.3122 8.497 12.3272 8.545 12.3542 8.586L14.0572 11.141C14.209 11.3697 14.296 11.6352 14.3089 11.9093C14.3219 12.1835 14.2603 12.456 14.1308 12.698C14.0012 12.9399 13.8085 13.1423 13.5732 13.2835C13.3379 13.4247 13.0687 13.4995 12.7942 13.5H1.83022C1.5552 13.5007 1.28518 13.4265 1.04907 13.2855C0.812974 13.1444 0.619689 12.9418 0.489921 12.6993C0.360152 12.4568 0.29879 12.1836 0.312406 11.9089C0.326023 11.6343 0.414104 11.3685 0.567217 11.14L2.27022 8.586C2.29739 8.54472 2.31198 8.49642 2.31222 8.447V5.5ZM7.31222 2C6.38396 2 5.49372 2.36875 4.83734 3.02513C4.18097 3.6815 3.81222 4.57174 3.81222 5.5V8.447C3.81222 8.793 3.71022 9.13 3.51822 9.417L1.81522 11.973C1.81319 11.9759 1.81214 11.9794 1.81222 11.983L1.81322 11.989C1.81322 11.991 1.81522 11.993 1.81722 11.995L1.82322 11.999L1.83022 12H12.7942L12.8012 11.999L12.8072 11.995L12.8112 11.989L12.8122 11.982C12.8123 11.9784 12.8112 11.9749 12.8092 11.972L11.1062 9.418C10.9144 9.13088 10.8121 8.7933 10.8122 8.448V5.5C10.8122 4.57174 10.4435 3.6815 9.78709 3.02513C9.13071 2.36875 8.24047 2 7.31222 2Z" fill="white"/>
</svg>
