<svg width="63" height="31" viewBox="0 0 63 31" fill="none" xmlns="http://www.w3.org/2000/svg">
<rect x="0.828125" y="0.5" width="61.6719" height="30" rx="5.5" fill="white"/>
<rect x="0.828125" y="0.5" width="61.6719" height="30" rx="5.5" stroke="#D0D7DE"/>
<path d="M31.8661 21H26.6021V11.004H31.8661V12.11H27.8481V15.232H31.6281V16.324H27.8481V19.894H31.8661V21ZM36.2542 21.14C35.3863 21.14 34.6863 20.818 34.1543 20.174C33.6316 19.5207 33.3703 18.55 33.3703 17.262C33.3703 15.974 33.6363 15.0033 34.1683 14.35C34.7003 13.6873 35.4003 13.356 36.2683 13.356C36.6323 13.356 36.9496 13.4073 37.2203 13.51C37.4909 13.6033 37.7243 13.734 37.9203 13.902C38.1256 14.07 38.2983 14.2567 38.4383 14.462H38.5223C38.5129 14.3407 38.4943 14.1633 38.4663 13.93C38.4476 13.6873 38.4383 13.496 38.4383 13.356V10.36H39.6562V21H38.6763L38.4943 19.992H38.4383C38.2983 20.2067 38.1256 20.4027 37.9203 20.58C37.7243 20.748 37.4863 20.8833 37.2063 20.986C36.9356 21.0887 36.6183 21.14 36.2542 21.14ZM36.4783 20.118C37.2063 20.118 37.7149 19.9033 38.0043 19.474C38.3029 19.0353 38.4523 18.3773 38.4523 17.5V17.276C38.4523 16.3427 38.3123 15.6287 38.0323 15.134C37.7523 14.63 37.2296 14.378 36.4643 14.378C35.8483 14.378 35.3863 14.644 35.0783 15.176C34.7796 15.6987 34.6303 16.4033 34.6303 17.29C34.6303 18.186 34.7796 18.8813 35.0783 19.376C35.3863 19.8707 35.8529 20.118 36.4783 20.118ZM43.1017 13.496V21H41.8837V13.496H43.1017ZM42.4997 10.682C42.6863 10.682 42.8497 10.7473 42.9897 10.878C43.1297 10.9993 43.1997 11.1953 43.1997 11.466C43.1997 11.7273 43.1297 11.9233 42.9897 12.054C42.8497 12.1847 42.6863 12.25 42.4997 12.25C42.3037 12.25 42.1357 12.1847 41.9957 12.054C41.8557 11.9233 41.7857 11.7273 41.7857 11.466C41.7857 11.1953 41.8557 10.9993 41.9957 10.878C42.1357 10.7473 42.3037 10.682 42.4997 10.682ZM47.737 20.132C47.9143 20.132 48.0963 20.118 48.283 20.09C48.4697 20.0527 48.6237 20.0153 48.745 19.978V20.916C48.6143 20.9813 48.4277 21.0327 48.185 21.07C47.9517 21.1167 47.7277 21.14 47.513 21.14C47.1397 21.14 46.7943 21.0747 46.477 20.944C46.1597 20.804 45.903 20.566 45.707 20.23C45.5203 19.894 45.427 19.4227 45.427 18.816V14.448H44.433V13.86L45.455 13.37L45.917 11.774H46.645V13.496H48.689V14.448H46.645V18.788C46.645 19.2453 46.7477 19.586 46.953 19.81C47.1583 20.0247 47.4197 20.132 47.737 20.132Z" fill="#24292F"/>
<path d="M20.3411 9.42701C20.6693 9.09909 21.1142 8.91489 21.5781 8.91489C22.042 8.91489 22.4869 9.09909 22.8151 9.42701L23.9011 10.513C24.229 10.8412 24.4132 11.2861 24.4132 11.75C24.4132 12.2139 24.229 12.6589 23.9011 12.987L15.2911 21.597C15.0811 21.807 14.8211 21.961 14.5351 22.042L11.2841 22.972C11.1554 23.0088 11.0192 23.0105 10.8897 22.9769C10.7602 22.9433 10.642 22.8756 10.5474 22.7809C10.4528 22.6862 10.3853 22.568 10.3518 22.4384C10.3184 22.3088 10.3202 22.1727 10.3571 22.044L11.2861 18.794C11.3671 18.508 11.5211 18.247 11.7311 18.036L20.3411 9.42601V9.42701ZM20.5171 14.25L19.0781 12.81L12.7921 19.097C12.762 19.1271 12.74 19.1642 12.7281 19.205L12.1701 21.158L14.1231 20.6C14.1639 20.5881 14.201 20.5661 14.2311 20.536L20.5171 14.25ZM21.7551 10.487C21.7319 10.4637 21.7043 10.4453 21.6739 10.4327C21.6435 10.4201 21.611 10.4136 21.5781 10.4136C21.5452 10.4136 21.5127 10.4201 21.4823 10.4327C21.4519 10.4453 21.4243 10.4637 21.4011 10.487L20.1391 11.75L21.5781 13.19L22.8411 11.927C22.8644 11.9038 22.8829 11.8762 22.8955 11.8458C22.9081 11.8155 22.9145 11.7829 22.9145 11.75C22.9145 11.7171 22.9081 11.6846 22.8955 11.6542C22.8829 11.6238 22.8644 11.5962 22.8411 11.573L21.7551 10.487Z" fill="#24292F"/>
</svg>
