<svg width="16" height="17" viewBox="0 0 16 17" fill="none" xmlns="http://www.w3.org/2000/svg">
<path d="M7.775 3.66562L9.02499 2.41562C9.35002 2.0906 9.73587 1.83278 10.1605 1.65688C10.5852 1.48098 11.0403 1.39044 11.5 1.39044C11.9596 1.39044 12.4148 1.48098 12.8395 1.65688C13.2641 1.83278 13.65 2.0906 13.975 2.41562C14.3 2.74064 14.5578 3.1265 14.7337 3.55116C14.9096 3.97582 15.0002 4.43097 15.0002 4.89062C15.0002 5.35027 14.9096 5.80542 14.7337 6.23008C14.5578 6.65474 14.3 7.0406 13.975 7.36562L11.475 9.86562C11.15 10.1907 10.7641 10.4485 10.3395 10.6244C9.91481 10.8003 9.45965 10.8909 9 10.8909C8.54034 10.8909 8.08518 10.8003 7.66052 10.6244C7.23586 10.4485 6.85001 10.1907 6.525 9.86562C6.39259 9.72336 6.32048 9.53531 6.32384 9.34099C6.3272 9.14667 6.40575 8.96122 6.543 8.82362C6.6806 8.68638 6.86605 8.60782 7.06036 8.60447C7.25468 8.60111 7.44273 8.67321 7.585 8.80562C7.77061 8.99181 7.99114 9.13954 8.23396 9.24034C8.47677 9.34114 8.73709 9.39303 9 9.39303C9.2629 9.39303 9.52322 9.34114 9.76604 9.24034C10.0088 9.13954 10.2294 8.99181 10.415 8.80562L12.915 6.30562C13.272 5.92667 13.4674 5.42355 13.4596 4.90296C13.4519 4.38238 13.2416 3.8853 12.8735 3.51715C12.5053 3.149 12.0082 2.93875 11.4877 2.931C10.9671 2.92324 10.4639 3.1186 10.085 3.47562L8.835 4.72562C8.69273 4.85803 8.50468 4.93013 8.31036 4.92678C8.11605 4.92342 7.9306 4.84486 7.793 4.70762C7.65575 4.57002 7.5772 4.38457 7.57384 4.19025C7.57048 3.99593 7.64259 3.80788 7.775 3.66562ZM3.085 13.3056C3.27061 13.4918 3.49114 13.6395 3.73396 13.7403C3.97677 13.8411 4.23709 13.893 4.5 13.893C4.7629 13.893 5.02322 13.8411 5.26604 13.7403C5.50885 13.6395 5.72938 13.4918 5.915 13.3056L7.165 12.0556C7.30726 11.9232 7.49531 11.8511 7.68963 11.8545C7.88394 11.8578 8.06939 11.9364 8.207 12.0736C8.34424 12.2112 8.42279 12.3967 8.42615 12.591C8.42951 12.7853 8.3574 12.9734 8.225 13.1156L6.975 14.3656C6.64997 14.6906 6.26412 14.9485 5.83946 15.1244C5.41479 15.3003 4.95965 15.3908 4.5 15.3908C3.57169 15.3908 2.68141 15.022 2.025 14.3656C1.36858 13.7092 0.999817 12.8189 0.999817 11.8906C0.999817 10.9623 1.36858 10.072 2.025 9.41562L4.525 6.91562C4.85001 6.59058 5.23586 6.33274 5.66052 6.15682C6.08518 5.98091 6.54034 5.89037 7 5.89037C7.45965 5.89037 7.91481 5.98091 8.33947 6.15682C8.76413 6.33274 9.14999 6.59058 9.475 6.91562C9.6074 7.05788 9.67951 7.24593 9.67615 7.44025C9.67279 7.63457 9.59424 7.82002 9.457 7.95762C9.31939 8.09486 9.13394 8.17342 8.93963 8.17678C8.74531 8.18013 8.55726 8.10803 8.415 7.97562C8.22938 7.78943 8.00885 7.6417 7.76604 7.5409C7.52322 7.4401 7.2629 7.38822 7 7.38822C6.73709 7.38822 6.47677 7.4401 6.23396 7.5409C5.99114 7.6417 5.77061 7.78943 5.585 7.97562L3.085 10.4756C2.8988 10.6612 2.75107 10.8818 2.65028 11.1246C2.54948 11.3674 2.49759 11.6277 2.49759 11.8906C2.49759 12.1535 2.54948 12.4138 2.65028 12.6567C2.75107 12.8995 2.8988 13.12 3.085 13.3056Z" fill="#57606A"/>
</svg>
