<svg width="16" height="16" viewBox="0 0 16 16" fill="none" xmlns="http://www.w3.org/2000/svg">
<path d="M10.561 8.073C11.5455 8.53835 12.385 9.26267 12.9895 10.1684C13.5941 11.0742 13.9409 12.1273 13.993 13.215C13.9999 13.3146 13.9868 13.4147 13.9544 13.5092C13.9221 13.6037 13.8713 13.6908 13.8048 13.7654C13.7384 13.84 13.6577 13.9005 13.5676 13.9435C13.4774 13.9865 13.3796 14.0111 13.2798 14.0157C13.18 14.0204 13.0803 14.0051 12.9865 13.9707C12.8928 13.9363 12.8068 13.8835 12.7337 13.8154C12.6606 13.7474 12.6018 13.6654 12.5608 13.5743C12.5198 13.4832 12.4975 13.3849 12.495 13.285C12.4405 12.1295 11.9431 11.0394 11.1061 10.241C10.2691 9.44253 9.15676 8.99707 8 8.99707C6.84324 8.99707 5.73091 9.44253 4.89391 10.241C4.0569 11.0394 3.55952 12.1295 3.505 13.285C3.49153 13.4806 3.40201 13.6631 3.25562 13.7935C3.10923 13.9239 2.9176 13.9918 2.72177 13.9826C2.52593 13.9735 2.34147 13.888 2.20788 13.7445C2.07428 13.6011 2.00218 13.411 2.007 13.215C2.05886 12.1274 2.40553 11.0743 3.0099 10.1685C3.61427 9.26276 4.45359 8.5384 5.438 8.073C4.80701 7.54669 4.35347 6.83878 4.13905 6.04557C3.92464 5.25237 3.95977 4.41237 4.23967 3.63983C4.51956 2.8673 5.03064 2.19974 5.70337 1.72795C6.3761 1.25616 7.17783 1.00305 7.9995 1.00305C8.82118 1.00305 9.62291 1.25616 10.2956 1.72795C10.9684 2.19974 11.4794 2.8673 11.7593 3.63983C12.0392 4.41237 12.0744 5.25237 11.86 6.04557C11.6455 6.83878 11.192 7.54669 10.561 8.073ZM10.5 5C10.5 4.33696 10.2366 3.70107 9.76777 3.23223C9.29893 2.76339 8.66304 2.5 8 2.5C7.33696 2.5 6.70108 2.76339 6.23224 3.23223C5.76339 3.70107 5.5 4.33696 5.5 5C5.5 5.66304 5.76339 6.29892 6.23224 6.76777C6.70108 7.23661 7.33696 7.5 8 7.5C8.66304 7.5 9.29893 7.23661 9.76777 6.76777C10.2366 6.29892 10.5 5.66304 10.5 5Z" fill="#57606A"/>
</svg>
